<svg width="20" height="20" viewBox="0 0 20 20" fill="none" xmlns="http://www.w3.org/2000/svg">
<path d="M6.6666 18.3333H13.3333C16.6833 18.3333 17.2833 16.9917 17.4583 15.3583L18.0833 8.69167C18.3083 6.65833 17.7249 5 14.1666 5H5.83327C2.27494 5 1.6916 6.65833 1.9166 8.69167L2.5416 15.3583C2.7166 16.9917 3.3166 18.3333 6.6666 18.3333Z" stroke="#5E6368" stroke-width="1.5" stroke-miterlimit="10" stroke-linecap="round" stroke-linejoin="round"/>
<path d="M6.66675 5.00002V4.33335C6.66675 2.85835 6.66675 1.66669 9.33341 1.66669H10.6667C13.3334 1.66669 13.3334 2.85835 13.3334 4.33335V5.00002" stroke="#5E6368" stroke-width="1.5" stroke-miterlimit="10" stroke-linecap="round" stroke-linejoin="round"/>
<path d="M11.6666 10.8333V11.6667C11.6666 11.675 11.6666 11.675 11.6666 11.6833C11.6666 12.5917 11.6583 13.3333 9.99992 13.3333C8.34992 13.3333 8.33325 12.6 8.33325 11.6917V10.8333C8.33325 10 8.33325 10 9.16659 10H10.8333C11.6666 10 11.6666 10 11.6666 10.8333Z" stroke="#5E6368" stroke-width="1.5" stroke-miterlimit="10" stroke-linecap="round" stroke-linejoin="round"/>
<path d="M18.0417 9.16669C16.1167 10.5667 13.9167 11.4 11.6667 11.6834" stroke="#5E6368" stroke-width="1.5" stroke-miterlimit="10" stroke-linecap="round" stroke-linejoin="round"/>
<path d="M2.18335 9.39166C4.05835 10.675 6.17502 11.45 8.33335 11.6917" stroke="#5E6368" stroke-width="1.5" stroke-miterlimit="10" stroke-linecap="round" stroke-linejoin="round"/>
</svg>
