<svg width="24" height="25" viewBox="0 0 24 25" fill="none" xmlns="http://www.w3.org/2000/svg">
<path d="M16.7 19.4801H7.30002C6.88002 19.4801 6.41002 19.1501 6.27002 18.7501L2.13002 7.17011C1.54002 5.51011 2.23002 5.00011 3.65002 6.02011L7.55002 8.81011C8.20002 9.26011 8.94002 9.03011 9.22002 8.30011L10.98 3.61011C11.54 2.11011 12.47 2.11011 13.03 3.61011L14.79 8.30011C15.07 9.03011 15.81 9.26011 16.45 8.81011L20.11 6.20011C21.67 5.08011 22.42 5.65011 21.78 7.46011L17.74 18.7701C17.59 19.1501 17.12 19.4801 16.7 19.4801Z" stroke="#5E6368" stroke-width="2" stroke-linecap="round" stroke-linejoin="round"/>
<path d="M6.5 22.5H17.5" stroke="#5E6368" stroke-width="2" stroke-linecap="round" stroke-linejoin="round"/>
<path d="M9.5 14.5H14.5" stroke="#5E6368" stroke-width="2" stroke-linecap="round" stroke-linejoin="round"/>
</svg>
