<svg width="28" height="28" viewBox="0 0 28 28" fill="none" xmlns="http://www.w3.org/2000/svg">
<path d="M19.4833 22.1434H8.51666C8.02666 22.1434 7.47832 21.7584 7.31499 21.2917L2.48499 7.78169C1.79665 5.84502 2.60165 5.25002 4.25832 6.44002L8.80832 9.69502C9.56666 10.22 10.43 9.95169 10.7567 9.10002L12.81 3.62836C13.4633 1.87836 14.5483 1.87836 15.2017 3.62836L17.255 9.10002C17.5817 9.95169 18.445 10.22 19.1917 9.69502L23.4617 6.65002C25.2817 5.34336 26.1567 6.00836 25.41 8.12002L20.6967 21.315C20.5217 21.7584 19.9733 22.1434 19.4833 22.1434Z" stroke="white" stroke-width="2" stroke-linecap="round" stroke-linejoin="round"/>
<path d="M7.58331 25.6667H20.4166" stroke="white" stroke-width="2" stroke-linecap="round" stroke-linejoin="round"/>
<path d="M11.0833 16.3333H16.9166" stroke="white" stroke-width="2" stroke-linecap="round" stroke-linejoin="round"/>
</svg>
