<svg width="28" height="28" viewBox="0 0 28 28" fill="none" xmlns="http://www.w3.org/2000/svg">
<path d="M17.3833 2.33331H10.6167C9.82332 2.33331 8.70331 2.79999 8.14331 3.35999L3.35999 8.14333C2.79999 8.70333 2.33331 9.82332 2.33331 10.6167V17.3833C2.33331 18.1766 2.79999 19.2966 3.35999 19.8566L8.14331 24.64C8.70331 25.2 9.82332 25.6666 10.6167 25.6666H17.3833C18.1766 25.6666 19.2967 25.2 19.8567 24.64L24.64 19.8566C25.2 19.2966 25.6666 18.1766 25.6666 17.3833V10.6167C25.6666 9.82332 25.2 8.70333 24.64 8.14333L19.8567 3.35999C19.2967 2.79999 18.1766 2.33331 17.3833 2.33331Z" stroke="white" stroke-width="2" stroke-linecap="round" stroke-linejoin="round"/>
<path d="M9.91669 18.0834L18.0834 9.91669" stroke="white" stroke-width="2" stroke-linecap="round" stroke-linejoin="round"/>
<path d="M18.0834 18.0834L9.91669 9.91669" stroke="white" stroke-width="2" stroke-linecap="round" stroke-linejoin="round"/>
</svg>
