<svg width="28" height="28" viewBox="0 0 28 28" fill="none" xmlns="http://www.w3.org/2000/svg">
<path d="M10.5233 3.31332L4.23498 8.21332C3.18498 9.02999 2.33331 10.7683 2.33331 12.0867V20.7317C2.33331 23.4383 4.53831 25.655 7.24498 25.655H20.755C23.4616 25.655 25.6666 23.4383 25.6666 20.7433V12.25C25.6666 10.8383 24.7216 9.02999 23.5666 8.22499L16.3566 3.17332C14.7233 2.02999 12.0983 2.08832 10.5233 3.31332Z" stroke="white" stroke-width="2" stroke-linecap="round" stroke-linejoin="round"/>
<path d="M12.25 21H15.75C17.675 21 19.25 19.425 19.25 17.5V14C19.25 12.075 17.675 10.5 15.75 10.5H12.25C10.325 10.5 8.75 12.075 8.75 14V17.5C8.75 19.425 10.325 21 12.25 21Z" stroke="white" stroke-width="2" stroke-linecap="round" stroke-linejoin="round"/>
<path d="M14 10.5V21" stroke="white" stroke-width="2" stroke-linecap="round" stroke-linejoin="round"/>
<path d="M8.75 15.75H19.25" stroke="white" stroke-width="2" stroke-linecap="round" stroke-linejoin="round"/>
</svg>
