<svg width="28" height="28" viewBox="0 0 28 28" fill="none" xmlns="http://www.w3.org/2000/svg">
<path d="M14.0233 3.39502C10.1616 3.39502 7.02331 6.53335 7.02331 10.395V13.7667C7.02331 14.4784 6.71998 15.5634 6.35831 16.17L5.01665 18.3984C4.18831 19.775 4.75998 21.3034 6.27665 21.8167C11.305 23.4967 16.73 23.4967 21.7583 21.8167C23.17 21.35 23.7883 19.6817 23.0183 18.3984L21.6766 16.17C21.3266 15.5634 21.0233 14.4784 21.0233 13.7667V10.395C21.0233 6.54502 17.8733 3.39502 14.0233 3.39502Z" stroke="white" stroke-width="2" stroke-miterlimit="10" stroke-linecap="round"/>
<path d="M16.1817 3.73331C15.82 3.62831 15.4467 3.54664 15.0617 3.49997C13.9417 3.35997 12.8683 3.44164 11.865 3.73331C12.2033 2.86997 13.0433 2.26331 14.0233 2.26331C15.0033 2.26331 15.8433 2.86997 16.1817 3.73331Z" stroke="white" stroke-width="2" stroke-miterlimit="10" stroke-linecap="round" stroke-linejoin="round"/>
<path d="M17.5233 22.2367C17.5233 24.1617 15.9483 25.7367 14.0233 25.7367C13.0666 25.7367 12.18 25.34 11.55 24.71C10.92 24.08 10.5233 23.1934 10.5233 22.2367" stroke="white" stroke-width="2" stroke-miterlimit="10"/>
</svg>
